<?xml version="1.0" encoding="iso-8859-1"?>
<!-- Uploaded to: SVG Repo, www.svgrepo.com, Generator: SVG Repo Mixer Tools -->
<svg height="800px" width="800px" version="1.1" id="Layer_1" xmlns="http://www.w3.org/2000/svg" xmlns:xlink="http://www.w3.org/1999/xlink" 
	 viewBox="0 0 512 512" xml:space="preserve">
<g>
	<path style="fill:#E8EDEE;" d="M379.923,512H149.726c-14.433,0-26.138-11.705-26.138-26.147V26.147
		C123.588,11.705,135.293,0,149.726,0h230.197c14.442,0,26.147,11.705,26.147,26.147v459.705
		C406.071,500.295,394.365,512,379.923,512"/>
	<polygon style="fill:#3D3935;" points="123.584,441.379 406.067,441.379 406.067,52.966 123.584,52.966 	"/>
	<g>
		<path style="fill:#11274d;" d="M300.136,35.31h-44.138c-4.873,0-8.828-3.955-8.828-8.828s3.955-8.828,8.828-8.828h44.138
			c4.873,0,8.828,3.955,8.828,8.828S305.009,35.31,300.136,35.31"/>
		<path style="fill:#11274d;" d="M229.515,35.31h-8.828c-4.873,0-8.828-3.955-8.828-8.828s3.955-8.828,8.828-8.828h8.828
			c4.873,0,8.828,3.955,8.828,8.828S234.388,35.31,229.515,35.31"/>
	</g>
	<path style="fill:#11274d;" d="M291.309,476.69c0,14.627-11.855,26.483-26.483,26.483c-14.627,0-26.483-11.855-26.483-26.483
		c0-14.627,11.855-26.483,26.483-26.483C279.453,450.207,291.309,462.062,291.309,476.69"/>
	<g>
		<path style="fill:#FFFFFF;" d="M220.688,317.806c-2.26,0-4.52-0.865-6.241-2.586l-52.551-52.551
			c-1.024-0.883-1.854-1.995-2.392-3.293c-1.359-3.302-0.653-7.089,1.871-9.613l53.027-53.027c3.443-3.443,9.031-3.443,12.482,0
			c3.443,3.452,3.443,9.039,0,12.482l-46.742,46.733l46.786,46.786c3.452,3.452,3.452,9.031,0,12.482
			C225.208,316.941,222.948,317.806,220.688,317.806"/>
		<path style="fill:#FFFFFF;" d="M308.964,317.853c-2.251,0-4.511-0.856-6.232-2.578c-3.452-3.443-3.46-9.031-0.018-12.482
			l46.645-46.786l-46.645-46.742c-3.443-3.452-3.434-9.048,0.009-12.491c3.46-3.443,9.048-3.425,12.491,0.018l52.86,52.974
			c3.434,3.443,3.434,9.022,0,12.465l-52.86,53.027C313.492,316.988,311.224,317.853,308.964,317.853"/>
		<path style="fill:#FFFFFF;" d="M256.007,317.802c-0.477,0-0.971-0.035-1.465-0.124c-4.802-0.794-8.051-5.35-7.247-10.161
			l17.655-105.94c0.794-4.793,5.323-8.068,10.161-7.247c4.802,0.803,8.051,5.35,7.247,10.161l-17.655,105.94
			C263.987,314.739,260.244,317.802,256.007,317.802"/>
	</g>
</g>
</svg>