<?xml version="1.0" encoding="iso-8859-1"?>
<!-- Uploaded to: SVG Repo, www.svgrepo.com, Generator: SVG Repo Mixer Tools -->
<!DOCTYPE svg PUBLIC "-//W3C//DTD SVG 1.1//EN" "http://www.w3.org/Graphics/SVG/1.1/DTD/svg11.dtd">
<svg fill="#000000" height="800px" width="800px" version="1.1" id="Capa_1" xmlns="http://www.w3.org/2000/svg" xmlns:xlink="http://www.w3.org/1999/xlink" 
	 viewBox="0 0 60 60" xml:space="preserve">
<g>
	<path d="M53,24v-0.911C53.331,22.655,55.115,22,56,22h1c0.553,0,1-0.447,1-1s-0.447-1-1-1h-1H42h-1c-0.553,0-1,0.447-1,1
		s0.447,1,1,1h1c0.885,0,2.669,0.655,3,1.089V24H32v-2h2v-6h-2v-4H18v6h2v2h-2v4h-4.936C14.255,22.206,15,19.349,15,16
		c0-2.335-0.389-4.598-1.096-6.37L13.653,9h-2.552C11.566,6.721,13.586,5,16,5c0.553,0,1-0.447,1-1s-0.447-1-1-1
		c-1.958,0-3.728,0.81-5,2.111V2c0-0.553-0.447-1-1-1S9,1.447,9,2v3.111C7.728,3.81,5.958,3,4,3C3.447,3,3,3.447,3,4s0.447,1,1,1
		c2.414,0,4.434,1.721,4.899,4H6.347L6.096,9.63C5.389,11.402,5,13.665,5,16c0,3.349,0.745,6.206,1.936,8H0v30h2v4
		c0,0.553,0.447,1,1,1h3c0.409,0,0.776-0.249,0.929-0.629L8.677,54H10V26h2v28h8V26h2v28h8V26h2v12h28V24H53z M28,33
		c0,0.553-0.447,1-1,1s-1-0.447-1-1v-4c0-0.553,0.447-1,1-1s1,0.447,1,1V33z M20,14h10v2H20V14z M22,18h10v2H22V18z M6,29
		c0-0.553,0.447-1,1-1s1,0.447,1,1v4c0,0.553-0.447,1-1,1s-1-0.447-1-1V29z M18,33c0,0.553-0.447,1-1,1s-1-0.447-1-1v-4
		c0-0.553,0.447-1,1-1s1,0.447,1,1V33z M30,24h-8h-2v-2h10V24z M46.67,22h4.66C51.123,22.298,51,22.631,51,23v1h-4v-1
		C47,22.631,46.877,22.298,46.67,22z M47,33h-4c-0.553,0-1-0.447-1-1s0.447-1,1-1h4c0.553,0,1,0.447,1,1S47.553,33,47,33z"/>
	<path d="M32,54h19.323l1.748,4.371C53.224,58.751,53.591,59,54,59h3c0.553,0,1-0.447,1-1v-4h2V40H32V54z M43,45h4
		c0.553,0,1,0.447,1,1s-0.447,1-1,1h-4c-0.553,0-1-0.447-1-1S42.447,45,43,45z"/>
</g>
</svg>